<?xml version="1.0" encoding="utf-8"?>
<!-- Generator: Adobe Illustrator 16.0.0, SVG Export Plug-In . SVG Version: 6.00 Build 0)  -->
<!DOCTYPE svg PUBLIC "-//W3C//DTD SVG 1.1//EN" "http://www.w3.org/Graphics/SVG/1.1/DTD/svg11.dtd">
<svg version="1.1" id="Layer_1" xmlns:svg="http://www.w3.org/2000/svg"
	 xmlns="http://www.w3.org/2000/svg" xmlns:xlink="http://www.w3.org/1999/xlink" x="0px" y="0px" width="102.214px"
	 height="93.133px" viewBox="0 0 102.214 93.133" enable-background="new 0 0 102.214 93.133" xml:space="preserve">
<g id="g3">
	<path id="path7" fill="#F6EAD8" d="M91.386,53.372l7.107-4.446l-7.521-3.703l6.067-5.786l-8.112-2.113l4.778-6.89l-8.373-0.438
		l3.295-7.71l-8.289,1.257l1.674-8.215l-7.866,2.899l-0.013-8.385l-7.122,4.425l-1.7-8.21l-6.086,5.767l-3.318-7.699l-4.801,6.873
		l-4.8-6.873l-3.318,7.699l-6.086-5.767l-1.7,8.21L28.08,9.843l-0.013,8.385l-7.867-2.9l1.675,8.215l-8.289-1.257l3.294,7.71
		l-8.372,0.438l4.778,6.89l-8.113,2.113l6.068,5.786L3.72,48.926l7.108,4.446l-6.622,5.144l7.856,2.924l-5.45,6.369l8.285,1.282
		L10.84,76.43l8.373-0.412l-0.011,0.035c0.544-0.248,1.092-0.488,1.643-0.723c-5.188-6.566-8.286-14.861-8.286-23.879
		c0-21.289,17.258-38.547,38.547-38.547s38.549,17.258,38.549,38.547c0,9.018-3.099,17.312-8.286,23.879
		c0.551,0.234,1.098,0.475,1.643,0.722L83,76.018l8.375,0.412l-4.059-7.339l8.285-1.282l-5.451-6.369l7.857-2.924L91.386,53.372z"/>
	<g>
		<path fill="#F6EAD8" d="M73.533,77.812l-0.438-0.142l-1.303,4.013l0.418,0.135c1.113,0.361,2.262,0.062,2.715-1.336
			C75.343,79.2,74.732,78.203,73.533,77.812z"/>
		<path fill="#F6EAD8" d="M39.822,75.1l-0.188,0.03l0.308,1.853l0.188-0.029c0.632-0.105,1.321-0.342,1.188-1.15
			C41.183,74.994,40.454,74.993,39.822,75.1z"/>
		<path fill="#F6EAD8" d="M85.655,78.463c-8.756-4.484-18.438-7.215-28.335-8.023c-0.234,0.19-0.513,0.336-0.83,0.418
			c-0.783,0.203-1.66,0.002-2.238-0.515c-0.035-0.032-0.078-0.065-0.117-0.098c-1.008-0.04-2.018-0.067-3.027-0.067
			c-0.083,0-0.166,0.004-0.25,0.004c0.58,0.602,0.803,1.478,0.489,2.267c-0.254,0.628-0.8,1.054-1.437,1.219l0.032,0.574
			l-1.617,0.092l0.331,5.869l-1.956,0.11l-0.331-5.869l-1.616,0.091l-0.095-1.657l2.74-0.154c-0.166-0.24-0.298-0.502-0.36-0.793
			l-0.011-0.046l-0.001-0.047c-0.01-0.446-0.098-0.866-0.447-1.522c-10.484,0.625-20.775,3.414-30.032,8.155l-0.001,0.005
			c1.344,4.192,3.42,8.064,6.181,11.521l0.005,0.001c9.087-4.615,18.996-7.056,28.687-7.056c9.422,0,18.861,2.377,28.063,7.059
			l0.006-0.002c2.758-3.453,4.832-7.321,6.176-11.508L85.655,78.463z M30.186,84.114c-0.982,0.368-2.059,0.344-3.038-0.048
			c-1.04-0.411-1.739-1.195-2.132-2.244c-0.36-0.965-0.343-2.027,0.072-2.973c0.427-0.973,1.267-1.776,2.26-2.147
			c0.589-0.222,1.182-0.294,1.809-0.271l0.822,2.198c-0.563-0.364-1.273-0.409-1.9-0.174c-1.124,0.42-1.56,1.565-1.149,2.66
			c0.417,1.114,1.485,1.632,2.628,1.204c0.599-0.225,1.09-0.738,1.302-1.342l0.824,2.201C31.145,83.594,30.758,83.9,30.186,84.114z
			 M33.136,82.891l-1.995-7.27l4.135-1.135l0.44,1.601l-2.246,0.616l0.333,1.215l2.13-0.585l0.439,1.601l-2.13,0.584l0.344,1.254
			l2.246-0.616l0.439,1.6L33.136,82.891z M42.469,80.78l-2.3-2.558l-0.02,0.004l0.476,2.858l-1.934,0.321l-1.236-7.437l2.89-0.479
			c1.47-0.244,2.7,0.271,2.964,1.856c0.171,1.026-0.253,2.008-1.277,2.372l2.843,2.659L42.469,80.78z M53.193,80.194l-1.958-0.038
			l0.146-7.536l1.959,0.038L53.193,80.194z M59.546,74.77l-2.358-0.209l-0.11,1.254l2.142,0.189l-0.147,1.652l-2.14-0.188
			l-0.261,2.947l-1.951-0.172l0.66-7.51l4.312,0.381L59.546,74.77z M62.296,81.133l-1.936-0.302l1.16-7.446l1.937,0.302
			L62.296,81.133z M68.878,77.777l-0.361,1.619l-2.156-0.481l-0.283,1.271l2.275,0.506l-0.363,1.621l-4.185-0.936l1.642-7.355
			l4.186,0.934l-0.361,1.619l-2.273-0.508l-0.274,1.229L68.878,77.777z M76.867,81.111c-0.656,2.018-2.818,3.049-4.808,2.402
			l-2.644-0.858l2.33-7.169l2.644,0.858C76.384,76.993,77.52,79.098,76.867,81.111z"/>
	</g>
	<path id="path31" fill="#F6EAD8" d="M69.636,48.059c-0.26-0.007-0.303-0.007-0.566-0.007c-0.006,0.308-0.006,0.356-0.006,0.632
		c0,0.771,0.014,1.076,0.021,1.262l-0.019,0.021c-0.176,0-0.187,0-0.354,0.011l-0.016-0.022c0.016-0.431,0.02-0.862,0.02-1.292
		c0-0.314-0.008-0.479-0.01-0.609c-0.268,0.002-0.299,0.002-0.572,0.012l-0.02-0.021c0.008-0.106,0.008-0.12,0.014-0.228
		l0.016-0.021c0.223,0,0.575,0,0.797-0.003c0.237,0,0.475-0.004,0.712-0.007l0.015,0.021c-0.008,0.106-0.013,0.142-0.013,0.23
		L69.636,48.059z"/>
	<path id="path33" fill="#F6EAD8" d="M72.023,47.807c0.016,0.713,0.039,1.424,0.079,2.139l-0.015,0.021
		c-0.154,0-0.172,0.003-0.332,0.011l-0.02-0.021c0.003-0.35,0-0.456-0.009-0.795l-0.007-0.327c0-0.218-0.004-0.688-0.004-0.806
		c-0.049,0.179-0.094,0.342-0.225,0.772l-0.142,0.445c-0.114,0.342-0.151,0.462-0.222,0.698l-0.019,0.021
		c-0.167,0-0.183,0-0.356,0.01l-0.02-0.021c-0.015-0.054-0.029-0.104-0.046-0.154c-0.024-0.096-0.16-0.555-0.19-0.655l-0.123-0.432
		c-0.123-0.439-0.137-0.488-0.18-0.688c-0.003,0.31-0.006,0.377-0.015,0.685l-0.022,0.55c-0.012,0.364-0.012,0.444-0.016,0.686
		l-0.016,0.021c-0.146,0-0.166,0-0.295,0.011l-0.016-0.021c0.006-0.062,0.012-0.127,0.02-0.188c0.029-0.367,0.041-0.732,0.063-1.1
		c0.03-0.548,0.033-0.582,0.033-0.854l0.019-0.021c0.227,0,0.28-0.003,0.475-0.009l0.021,0.021c0.057,0.245,0.107,0.424,0.168,0.633
		l0.338,1.244l0.391-1.283c0.121-0.4,0.13-0.416,0.176-0.586l0.018-0.021c0.226,0,0.252-0.003,0.467-0.009L72.023,47.807z"/>
	<g>
		<path fill="#F6EAD8" d="M18.447,55.453c-0.625,0.086-0.641,0.646-0.574,1.134l0.02,0.146l1.432-0.195l-0.021-0.146
			C19.238,55.905,19.071,55.369,18.447,55.453z"/>
		<polygon fill="#F6EAD8" points="78.119,35.763 78.731,36.857 80.042,35.42 80.035,35.407 		"/>
		<path fill="#F6EAD8" d="M35.635,21.615l-0.131,0.065l0.651,1.291l0.131-0.065c0.439-0.221,0.892-0.553,0.609-1.115
			C36.611,21.228,36.075,21.394,35.635,21.615z"/>
		<path fill="#F6EAD8" d="M51.106,14.135c-20.608,0-37.316,16.708-37.316,37.316c0,8.854,3.084,16.982,8.233,23.38
			c3.646-1.483,7.412-2.681,11.255-3.589c-5.373-4.874-8.747-11.911-8.747-19.736c0-4.893,1.325-9.474,3.626-13.414
			c-0.369-0.561-0.456-1.315-0.185-1.99c0.219-0.543,0.658-0.983,1.206-1.209c0.409-0.169,0.847-0.207,1.266-0.116
			c1.148-1.422,2.438-2.726,3.852-3.884c0.233-0.3,0.535-0.534,0.875-0.688c4.455-3.354,9.996-5.343,16.003-5.343
			c14.715,0,26.643,11.929,26.643,26.644c0,7.839-3.386,14.887-8.774,19.762c3.807,0.904,7.537,2.094,11.148,3.563
			c5.148-6.397,8.232-14.526,8.232-23.38C88.423,30.843,71.716,14.135,51.106,14.135z M16.524,47.812l5.956-1.708l-0.13,1.603
			l-1.034,0.294l-0.168,2.068l0.971,0.479l-0.129,1.595l-5.599-2.691L16.524,47.812z M16.955,58.383l-0.307-2.232
			c-0.156-1.135,0.267-2.069,1.494-2.237c0.792-0.108,1.538,0.237,1.795,1.032l2.106-2.127l0.256,1.857l-2.016,1.713l0.002,0.017
			l2.209-0.304l0.205,1.492L16.955,58.383z M22.883,44.909l-5.612-1.458l0.379-1.458l5.612,1.458L22.883,44.909z M25.506,37.852
			l-4.392,0.976l-0.007,0.015l3.212,1.518l-0.644,1.363l-5.242-2.48l0.644-1.362l4.386-0.98l0.007-0.014l-3.206-1.515l0.645-1.363
			l5.241,2.479L25.506,37.852z M27.192,35.056l-4.591-3.541l2.033-2.637l1.011,0.779l-1.113,1.444l0.768,0.591l1.009-1.309
			l1.01,0.779l-1.008,1.31l1.802,1.389L27.192,35.056z M32.608,29.432c-1.424,1.199-3.305,1.053-4.513-0.382
			c-1.13-1.343-0.745-3.273,0.531-4.349c1.278-1.074,3.246-1.123,4.375,0.218C34.21,26.355,34.032,28.233,32.608,29.432z
			 M38.877,25.183l-2.273-1.354l-0.013,0.008l1.002,1.992l-1.347,0.677l-2.605-5.18l2.013-1.013
			c1.023-0.515,2.045-0.417,2.602,0.688c0.359,0.715,0.271,1.533-0.397,2.033l2.694,1.305L38.877,25.183z M41.702,24.003
			l-1.577-5.58l3.175-0.898l0.347,1.229l-1.724,0.487l0.264,0.933l1.634-0.462l0.348,1.228l-1.636,0.462l0.273,0.962l1.723-0.487
			l0.347,1.228L41.702,24.003z M49.92,22.063c-0.416,0.426-1.006,0.643-1.588,0.697c-0.728,0.068-1.462-0.109-2.091-0.467
			l0.529-1.271c0.406,0.294,0.875,0.52,1.389,0.472c0.352-0.033,0.711-0.244,0.672-0.65c-0.039-0.421-0.643-0.511-0.973-0.572
			c-0.967-0.18-1.61-0.366-1.716-1.484c-0.109-1.171,0.652-2.015,1.809-2.124c0.582-0.054,1.311,0.063,1.852,0.305l-0.488,1.22
			c-0.298-0.204-0.664-0.323-1.031-0.289c-0.275,0.026-0.628,0.222-0.598,0.543c0.031,0.337,0.449,0.429,0.718,0.489l0.394,0.077
			c0.826,0.162,1.484,0.51,1.572,1.443C50.424,21.027,50.342,21.629,49.92,22.063z M55.958,18.229l-1.24-0.103l-0.372,4.506
			l-1.502-0.124l0.372-4.507l-1.241-0.103l0.104-1.271l3.984,0.329L55.958,18.229z M65.3,25.952l-1.479-0.628l0.049-1.075
			l-1.912-0.811l-0.763,0.771l-1.472-0.625l4.318-4.465l1.515,0.643L65.3,25.952z M69.781,27.5l-0.718,1.055l-2.739-1.865
			l3.262-4.793l1.246,0.848l-2.545,3.737L69.781,27.5z M70.028,29.379L74,25.154l1.099,1.034l-3.097,3.293l1.315,1.239l-0.874,0.929
			L70.028,29.379z M73.251,32.633l4.499-3.657l0.95,1.168l-4.499,3.658L73.251,32.633z M77.229,38.598l0.694-0.82l-1.014-1.814
			l-1.074,0.143l-0.78-1.396l6.149-0.882l0.803,1.437L78.013,40L77.229,38.598z M82.296,41.718l-3.432,0.919l-0.389-1.456l5.6-1.499
			l0.391,1.456l-2.711,3.583l0.004,0.015l3.425-0.917l0.39,1.456l-5.601,1.499l-0.39-1.456l2.717-3.585L82.296,41.718z
			 M85.339,58.527l-1.262-0.195l0.275-1.77l-0.958-0.149l-0.261,1.68l-1.262-0.196l0.26-1.68l-0.986-0.152l-0.275,1.771
			l-1.261-0.195l0.504-3.261l5.731,0.888L85.339,58.527z M84.111,52.559c0.405-0.319,0.613-0.826,0.598-1.342
			c-0.028-0.923-0.756-1.521-1.655-1.494c-0.914,0.028-1.556,0.68-1.525,1.617c0.017,0.491,0.269,0.977,0.655,1.279l-1.807,0.057
			c-0.17-0.494-0.297-0.854-0.312-1.32c-0.024-0.809,0.259-1.586,0.785-2.203c0.558-0.654,1.301-0.971,2.159-0.997
			c0.794-0.025,1.564,0.251,2.15,0.786c0.602,0.551,0.98,1.361,1.006,2.178c0.015,0.482-0.078,0.933-0.25,1.384L84.111,52.559z"/>
		<path fill="#F6EAD8" d="M29.569,25.82c-0.689,0.578-0.784,1.613-0.268,2.225c0.644,0.765,1.679,0.848,2.367,0.269
			s0.782-1.613,0.139-2.378C31.292,25.324,30.256,25.241,29.569,25.82z"/>
		<path fill="#F6EAD8" d="M36.623,85.854c4.453,1.877,9.348,2.914,14.483,2.914c5.174,0,10.103-1.053,14.58-2.955
			c-4.74-1.228-9.508-1.848-14.269-1.848C46.497,83.965,41.52,84.607,36.623,85.854z"/>
		<polygon fill="#F6EAD8" points="63.945,23.028 64.101,21.09 64.087,21.083 62.792,22.539 		"/>
		<polygon fill="#F6EAD8" points="18.243,48.793 20.031,49.564 20.133,48.316 18.244,48.777 		"/>
	</g>
	<path id="path71" fill="#F6EAD8" d="M67.878,55.686c0,0,0.806,0.323,1.154,0.375c0.838,0.199,1.719-0.235,2.047-1.058
		c0.362-0.905-0.078-1.935-0.981-2.298c-0.802-0.321-1.696-0.012-2.146,0.688c-0.578,0.67-2.705,1.534-3.74,0.918
		c-0.323-0.72,0.41-1.135,1.107-1.582c1.04-0.664,1.26-1.623,0.465-2.357c-0.267-0.252-0.787-0.477-1.184-0.391
		c-0.648,0.103-1.105,0.675-1.206,1.367c-0.087,0.691-0.491,2.303-2.458,2.5c-1.499,0.154-2.004,0.408-2.053-0.529
		c-0.029-0.976,0.128-1.986,0.541-2.993c0.82-1.976,1.807-2.655,3.214-3.97l2.717-2.14c0.888-0.877,2.017-1.36,2.589-2.59
		c0.239-0.507,0.432-1.381,0.172-1.941c0.646-0.782,1.396-2.075,1.493-2.686c0.216-1.332-0.131-2.797-1.425-3.126
		c-0.068-0.021-0.201-0.08-0.201-0.08c-1.302-0.477-2.555-0.137-3.85-0.626c-1.932-0.747-2.217-2.386-4.742-2.656
		c-1.805-0.198-2.911,0.892-3.891,2.364c-0.412,0.591-0.732,1.212-1.328,1.585c-1.17,0.747-2.729,0.878-3.993,1.068
		c-3.719,0.494-5.868,2.046-7.512,3.502c-0.903,0.802-5.037,4.918-6.065,5.697c-1.231-0.092-2.179-0.758-1.697-2.413
		c0.549-2.16,2.294-2.327,3.055-2.221c1.822,0.262,2.12-1.228,2.124-1.232c0.201-0.502,0.043-1.36-0.883-1.763
		c-1.382-0.605-1.998,0.682-2.178,0.855c-0.125,0.122-0.768,1.395-1.79,1.227c-0.286-0.381-0.53-1.21-0.089-2.233
		c1.146-2.643,2.156-2.962,2.542-4.222c0.248-0.814-0.073-1.84-1.024-2.145c-0.951-0.305-1.966,0.22-2.271,1.171
		c-0.321,0.833-0.172,3.099-0.836,5.092c-0.254,0.766-0.852,2.799-1.561,1.824c-0.438-0.598-0.533-1.124-0.505-1.773
		c0.046-0.613-0.194-1.252-0.854-1.539c-0.867-0.373-1.863,0.086-2.203,0.933c-0.301,0.751-0.031,1.516,0.469,1.885
		c0.66,0.607,1.759,0.076,2.201,1.637c0.329,1.146,0.485,1.983-0.211,3.839c-0.942,2.51-0.964,5.234-0.06,6.471
		c1.119,1.533,2.282,1.334,2.282,1.334c-0.55,1.822-0.832,3.165,1.59,5.009c0.408,0.31,2.326,1.294,3.286,1.306
		c-0.819,2.191-2.746,1.026-3.502,3.115c-1.063,2.942,4.196,4.484,6.924,5.441c3.273,1.15,4.112,1.402,5.08,2.879
		c0.843,1.286,1.016,1.93,1.03,2.622c0.117,0.552,0.518,1.054,1.115,1.291c0.905,0.36,1.911-0.023,2.249-0.855
		c0.33-0.838-0.13-1.81-1.038-2.173c-0.977-0.388-1.103-0.748-0.927-1.419c1.146-0.821,4.202-0.007,5.663,1.304
		c0.812,0.729,2.475,0.668,2.931-0.656c0.209-0.606,0.038-1.571-1.08-2.029c-0.913-0.38-1.751,0.136-2.507,0.136
		c-1.502,0-2.853-0.731-3.464-1.282c0.025-0.105,0.191-1.209,1.867-1.058c0.85,0.075,1.612-0.417,1.738-1.399
		c0.062-0.469-0.17-0.974-0.887-1.265c-0.605-0.243-1.273-0.034-1.646,0.468c-0.447,0.416-0.49,0.948-1.411,1.414
		c-0.881,0.449-1.293,0.542-2.229,0.461c-0.417-0.039-1.553-0.343-1.97-0.871c-0.233-0.289-0.246-0.771-0.246-0.771
		c-0.202,0.015,4.542-0.944,5.691-2.479c1.531-2.054,0.095-3.339-1.864-4.215c1.623-0.734,4.119-2.523,5.042-3.904
		c0.219,0.1,0.496,1.436,0.611,1.877l0.229,2.256c0.597,1.981,2.744,0.281,4.669,0.529c1.688,0.224,2.123,0.472,3.086,1.336
		c0.528,0.465,0.776,1.334,1.298,2.01c0.253,0.392,0.678,0.66,1.171,0.693c0.843,0.062,1.573-0.576,1.63-1.42
		c0.051-0.689-0.375-1.31-0.996-1.539c-1.33-0.294-2.836-1.193-1.576-1.984C65.934,55.479,67.416,55.574,67.878,55.686
		 M63.179,40.258c-0.762,0.54-2.328,0.634-3.624-0.037c-0.438,0.188-0.653,0.238-0.88,0.209c-0.206-0.034-0.233-0.102-0.25-0.223
		c-0.043-0.34-0.02-1.213,0.383-1.932c0.531-0.943,1.223-1.395,2.113-1.597c0.998-0.229,1.609-0.019,2.074,0.276
		C64.154,37.686,64.292,39.471,63.179,40.258"/>
	<path id="path73" fill="#F6EAD8" d="M62.778,39.262c0,0-0.251-0.243-0.341-0.298c-0.773-0.498-1.611-0.365-2.3,0.105
		c-0.154,0.047-0.147-0.132-0.125-0.223c0.286-1.339,1.741-1.383,2.108-1.238C62.751,37.85,62.946,38.501,62.778,39.262"/>
</g>
</svg>
