<?xml version="1.0" encoding="utf-8"?>
<!-- Generator: Adobe Illustrator 16.0.0, SVG Export Plug-In . SVG Version: 6.00 Build 0)  -->
<!DOCTYPE svg PUBLIC "-//W3C//DTD SVG 1.1//EN" "http://www.w3.org/Graphics/SVG/1.1/DTD/svg11.dtd">
<svg version="1.1" id="Layer_1" xmlns:svg="http://www.w3.org/2000/svg"
	 xmlns="http://www.w3.org/2000/svg" xmlns:xlink="http://www.w3.org/1999/xlink" x="0px" y="0px" width="102.214px"
	 height="93.133px" viewBox="0 0 102.214 93.133" enable-background="new 0 0 102.214 93.133" xml:space="preserve">
<g id="g3">
	<path id="path71" fill="#F6EAD8" d="M85.832,55.165c0,0,1.604,0.644,2.298,0.746c1.668,0.396,3.422-0.469,4.074-2.105
		c0.722-1.802-0.155-3.851-1.953-4.574c-1.597-0.64-3.377-0.023-4.271,1.369c-1.15,1.333-5.385,3.054-7.445,1.827
		c-0.644-1.433,0.816-2.259,2.204-3.149c2.07-1.322,2.508-3.231,0.926-4.693c-0.531-0.501-1.567-0.948-2.356-0.777
		c-1.291,0.204-2.2,1.344-2.4,2.722c-0.173,1.376-0.979,4.584-4.894,4.977c-2.984,0.308-3.989,0.812-4.086-1.054
		c-0.059-1.941,0.255-3.954,1.077-5.958c1.633-3.933,3.596-5.286,6.397-7.904l5.408-4.26c1.768-1.746,4.015-2.707,5.153-5.155
		c0.477-1.009,0.859-2.749,0.343-3.864c1.285-1.557,2.777-4.131,2.973-5.347c0.429-2.652-0.261-5.568-2.837-6.223
		c-0.136-0.042-0.4-0.16-0.4-0.16c-2.592-0.95-5.086-0.272-7.663-1.246c-3.846-1.487-4.413-4.749-9.44-5.288
		c-3.593-0.394-5.795,1.776-7.745,4.707c-0.82,1.176-1.458,2.412-2.644,3.155c-2.329,1.487-5.432,1.748-7.949,2.126
		c-7.404,0.984-11.682,4.074-14.955,6.971c-1.797,1.597-10.027,9.791-12.073,11.341c-2.451-0.184-4.338-1.509-3.379-4.803
		c1.093-4.3,4.567-4.633,6.082-4.422c3.627,0.522,4.22-2.444,4.228-2.453c0.4-0.999,0.085-2.707-1.757-3.509
		c-2.752-1.204-3.978,1.357-4.336,1.702c-0.249,0.243-1.529,2.777-3.563,2.442c-0.569-0.759-1.055-2.41-0.177-4.446
		c2.281-5.262,4.292-5.896,5.061-8.404c0.494-1.62-0.146-3.663-2.039-4.27c-1.893-0.607-3.914,0.438-4.521,2.331
		c-0.64,1.658-0.342,6.169-1.664,10.136c-0.506,1.525-1.696,5.572-3.108,3.631c-0.872-1.191-1.061-2.237-1.005-3.529
		c0.091-1.22-0.387-2.492-1.7-3.064c-1.726-0.743-3.709,0.171-4.386,1.857c-0.6,1.495-0.062,3.018,0.934,3.752
		c1.314,1.208,3.502,0.151,4.382,3.259c0.655,2.281,0.965,3.947-0.42,7.642c-1.875,4.997-1.919,10.419-0.12,12.882
		c2.228,3.052,4.542,2.655,4.542,2.655c-1.094,3.628-1.655,6.301,3.166,9.971c0.812,0.616,4.629,2.576,6.542,2.6
		c-1.631,4.362-5.467,2.043-6.972,6.201c-2.116,5.857,8.354,8.927,13.784,10.832c6.515,2.29,8.185,2.792,10.113,5.731
		c1.678,2.561,2.021,3.841,2.05,5.22c0.233,1.099,1.031,2.098,2.22,2.569c1.801,0.718,3.804-0.046,4.477-1.702
		c0.656-1.668-0.26-3.603-2.066-4.326c-1.945-0.771-2.196-1.489-1.846-2.824c2.281-1.635,8.364-0.014,11.272,2.595
		c1.617,1.452,4.926,1.33,5.834-1.306c0.416-1.208,0.075-3.128-2.15-4.04c-1.817-0.756-3.485,0.271-4.99,0.271
		c-2.99,0-5.68-1.456-6.896-2.553c0.05-0.21,0.38-2.406,3.716-2.105c1.691,0.149,3.21-0.83,3.461-2.786
		c0.124-0.933-0.339-1.938-1.766-2.518c-1.205-0.483-2.535-0.067-3.276,0.932c-0.891,0.828-0.976,1.888-2.809,2.815
		c-1.753,0.894-2.574,1.078-4.438,0.917c-0.83-0.077-3.092-0.683-3.922-1.734c-0.464-0.575-0.489-1.533-0.489-1.533
		c-0.403,0.029,9.042-1.88,11.328-4.937c3.048-4.088,0.189-6.646-3.711-8.39c3.231-1.462,8.199-5.023,10.038-7.772
		c0.436,0.198,0.987,2.857,1.217,3.736l0.455,4.49c1.188,3.945,5.463,0.561,9.295,1.054c3.36,0.445,4.226,0.939,6.143,2.66
		c1.052,0.925,1.546,2.655,2.584,4.001c0.503,0.779,1.349,1.313,2.331,1.38c1.678,0.124,3.132-1.147,3.244-2.827
		c0.102-1.372-0.746-2.606-1.982-3.063c-2.648-0.585-5.646-2.375-3.138-3.95C81.961,54.753,84.91,54.943,85.832,55.165
		 M76.477,24.453c-1.517,1.075-4.635,1.263-7.215-0.073c-0.872,0.375-1.3,0.474-1.751,0.416c-0.41-0.068-0.465-0.203-0.498-0.444
		c-0.085-0.677-0.039-2.415,0.762-3.846c1.058-1.877,2.435-2.777,4.207-3.18c1.987-0.455,3.204-0.037,4.13,0.55
		C78.417,19.333,78.693,22.887,76.477,24.453"/>
	<path id="path73" fill="#F6EAD8" d="M75.678,22.471c0,0-0.5-0.484-0.679-0.594c-1.54-0.991-3.208-0.726-4.578,0.209
		c-0.308,0.094-0.294-0.262-0.249-0.443c0.569-2.667,3.466-2.754,4.197-2.465C75.625,19.66,76.012,20.956,75.678,22.471"/>
	<path id="path75" fill="#F9F2E8" d="M25.674,44.842c-0.501,0.396-0.748-0.428-0.748-0.428c4.267-6.12,9.76-14.315,16.791-18.685
		c7.033-4.365,15.549-5.084,15.549-5.084s-7.124,2.176-15.985,8.325C34.806,33.461,28.29,42.773,25.674,44.842"/>
	<path id="path77" fill="#F9F2E8" d="M45.834,59.48c2.24,0.807,5.494-1.668,8.086,0.852c-0.718-1.55-2.53-2.741-4.659-3.693
		c-3.527-1.583-7.548-2.028-11.99-1.435C43.859,55.406,43.593,58.668,45.834,59.48"/>
</g>
</svg>
